@startuml

abstract class AbstractList
abstract AbstractCollection
interface List
interface Collection
interface  Hello
List <|-- AbstractList
Collection <..AbstractCollection

Collection <|- List
AbstractCollection <|- AbstractList
AbstractList <|-- ArrayList

class ArrayList {
Object[] elementData
size()
String name
get()
}



@enduml